<svg xmlns="http://www.w3.org/2000/svg" viewBox="0 0 480 400">
  <!-- Background -->
  <rect width="480" height="400" fill="#282c34"/>
  
  <!-- Title -->
  <text x="240" y="30" font-family="monospace" font-size="16" fill="#61dafb" text-anchor="middle">Network Access Controller</text>
  
  <!-- Main Container -->
  <g transform="translate(30, 50)">
    <!-- Root Folder - java/com/example -->
    <rect x="0" y="0" width="20" height="20" fill="#e6c07b"/>
    <text x="25" y="15" font-family="monospace" font-size="12" fill="#e6c07b">java/com/example</text>
    
    <!-- App.java -->
    <rect x="20" y="30" width="16" height="16" fill="#98c379"/>
    <text x="41" y="43" font-family="monospace" font-size="11" fill="#98c379">App.java</text>
    
    <!-- Packages -->
    <!-- common -->
    <rect x="20" y="60" width="16" height="16" fill="#e6c07b"/>
    <text x="41" y="73" font-family="monospace" font-size="11" fill="#e6c07b">common</text>
    <rect x="40" y="80" width="14" height="14" fill="#98c379"/>
    <text x="59" y="91" font-family="monospace" font-size="10" fill="#98c379">eRole.java</text>
    
    <!-- controllers -->
    <rect x="20" y="110" width="16" height="16" fill="#e6c07b"/>
    <text x="41" y="123" font-family="monospace" font-size="11" fill="#e6c07b">controllers</text>
    <rect x="40" y="130" width="14" height="14" fill="#98c379"/>
    <text x="59" y="141" font-family="monospace" font-size="10" fill="#98c379">AppController.java</text>
    <rect x="40" y="150" width="14" height="14" fill="#98c379"/>
    <text x="59" y="161" font-family="monospace" font-size="10" fill="#98c379">AppControllerImpl.java</text>
    
    <!-- dto -->
    <rect x="20" y="180" width="16" height="16" fill="#e6c07b"/>
    <text x="41" y="193" font-family="monospace" font-size="11" fill="#e6c07b">dto</text>
    <rect x="40" y="200" width="14" height="14" fill="#98c379"/>
    <text x="59" y="211" font-family="monospace" font-size="10" fill="#98c379">ServiceCreateResponse.java</text>
    <rect x="40" y="220" width="14" height="14" fill="#98c379"/>
    <text x="59" y="231" font-family="monospace" font-size="10" fill="#98c379">ServicePermissionsDTO.java</text>
    <rect x="40" y="240" width="14" height="14" fill="#98c379"/>
    <text x="59" y="251" font-family="monospace" font-size="10" fill="#98c379">UserCreateResponse.java</text>
    <rect x="40" y="260" width="14" height="14" fill="#98c379"/>
    <text x="59" y="271" font-family="monospace" font-size="10" fill="#98c379">UserPermissionsDTO.java</text>
    
    <!-- models -->
    <rect x="240" y="60" width="16" height="16" fill="#e6c07b"/>
    <text x="261" y="73" font-family="monospace" font-size="11" fill="#e6c07b">models</text>
    <rect x="260" y="80" width="14" height="14" fill="#98c379"/>
    <text x="279" y="91" font-family="monospace" font-size="10" fill="#98c379">MicroService.java</text>
    <rect x="260" y="100" width="14" height="14" fill="#98c379"/>
    <text x="279" y="111" font-family="monospace" font-size="10" fill="#98c379">User.java</text>
    
    <!-- repos -->
    <rect x="240" y="130" width="16" height="16" fill="#e6c07b"/>
    <text x="261" y="143" font-family="monospace" font-size="11" fill="#e6c07b">repos</text>
    <rect x="260" y="150" width="14" height="14" fill="#98c379"/>
    <text x="279" y="161" font-family="monospace" font-size="10" fill="#98c379">MicroServiceRepository.java</text>
    <rect x="260" y="170" width="14" height="14" fill="#98c379"/>
    <text x="279" y="181" font-family="monospace" font-size="10" fill="#98c379">UserRepository.java</text>
    
    <!-- services -->
    <rect x="240" y="200" width="16" height="16" fill="#e6c07b"/>
    <text x="261" y="213" font-family="monospace" font-size="11" fill="#e6c07b">services</text>
    <rect x="260" y="220" width="14" height="14" fill="#98c379"/>
    <text x="279" y="231" font-family="monospace" font-size="10" fill="#98c379">MicroServiceService.java</text>
    <rect x="260" y="240" width="14" height="14" fill="#98c379"/>
    <text x="279" y="251" font-family="monospace" font-size="10" fill="#98c379">ServiceProvider.java</text>
    <rect x="260" y="260" width="14" height="14" fill="#98c379"/>
    <text x="279" y="271" font-family="monospace" font-size="10" fill="#98c379">UserService.java</text>
    
    <!-- resources -->
    <rect x="0" y="300" width="20" height="20" fill="#e6c07b"/>
    <text x="25" y="315" font-family="monospace" font-size="12" fill="#e6c07b">resources</text>
    <rect x="20" y="325" width="16" height="16" fill="#c678dd"/>
    <text x="41" y="338" font-family="monospace" font-size="11" fill="#c678dd">application.properties</text>
    
    <!-- Connecting Lines -->
    <!-- Main vertical line -->
    <line x1="10" y1="20" x2="10" y2="300" stroke="#61afef" stroke-width="2" stroke-dasharray="4,2"/>
    
    <!-- Lines to packages -->
    <line x1="10" y1="38" x2="20" y2="38" stroke="#61afef" stroke-width="2"/>
    <line x1="10" y1="68" x2="20" y2="68" stroke="#61afef" stroke-width="2"/>
    <line x1="10" y1="118" x2="20" y2="118" stroke="#61afef" stroke-width="2"/>
    <line x1="10" y1="188" x2="20" y2="188" stroke="#61afef" stroke-width="2"/>
    <line x1="10" y1="68" x2="230" y2="68" stroke="#61afef" stroke-width="2"/>
    <line x1="230" y1="68" x2="240" y2="68" stroke="#61afef" stroke-width="2"/>
    <line x1="230" y1="68" x2="230" y2="138" stroke="#61afef" stroke-width="2"/>
    <line x1="230" y1="138" x2="240" y2="138" stroke="#61afef" stroke-width="2"/>
    <line x1="230" y1="138" x2="230" y2="208" stroke="#61afef" stroke-width="2"/>
    <line x1="230" y1="208" x2="240" y2="208" stroke="#61afef" stroke-width="2"/>
    <line x1="10" y1="310" x2="20" y2="310" stroke="#61afef" stroke-width="2" stroke-dasharray="0"/>
    
    <!-- Pixel blocks for decoration -->
    <!-- Decorative pixels at corners -->
    <rect x="405" y="5" width="6" height="6" fill="#e06c75"/>
    <rect x="413" y="5" width="6" height="6" fill="#98c379"/>
    <rect x="421" y="5" width="6" height="6" fill="#e5c07b"/>
    <rect x="405" y="13" width="6" height="6" fill="#61afef"/>
    <rect x="413" y="13" width="6" height="6" fill="#c678dd"/>
    <rect x="421" y="13" width="6" height="6" fill="#56b6c2"/>
    
    <rect x="405" y="285" width="6" height="6" fill="#e06c75"/>
    <rect x="413" y="285" width="6" height="6" fill="#98c379"/>
    <rect x="421" y="285" width="6" height="6" fill="#e5c07b"/>
    <rect x="405" y="293" width="6" height="6" fill="#61afef"/>
    <rect x="413" y="293" width="6" height="6" fill="#c678dd"/>
    <rect x="421" y="293" width="6" height="6" fill="#56b6c2"/>
    
    <!-- Legend -->
    <g transform="translate(350, 330)">
      <rect x="0" y="0" width="10" height="10" fill="#e6c07b"/>
      <text x="15" y="9" font-family="monospace" font-size="10" fill="#ffffff">Directory</text>
      <rect x="0" y="15" width="10" height="10" fill="#98c379"/>
      <text x="15" y="24" font-family="monospace" font-size="10" fill="#ffffff">Java File</text>
      <rect x="0" y="30" width="10" height="10" fill="#c678dd"/>
      <text x="15" y="39" font-family="monospace" font-size="10" fill="#ffffff">Properties</text>
    </g>
  </g>
</svg>
